HIERARCHY
ROOT hip
{
  OFFSET 0 0 0
  CHANNELS 6 Xposition Yposition Zposition Zrotation Yrotation Xrotation
  JOINT abdomen
  {
    OFFSET 0 20.6881 -0.73152
    CHANNELS 3 Zrotation Xrotation Yrotation
    JOINT chest
    {
      OFFSET 0 11.7043 -0.48768
      CHANNELS 3 Zrotation Xrotation Yrotation
      JOINT neck
      {
        OFFSET 0 22.1894 -2.19456
        CHANNELS 3 Zrotation Xrotation Yrotation
        JOINT head
        {
          OFFSET -0.24384 7.07133 1.2192
          CHANNELS 3 Zrotation Xrotation Yrotation
          JOINT leftEye
          {
            OFFSET 4.14528 8.04674 8.04672
            CHANNELS 3 Zrotation Xrotation Yrotation
            End Site
            {
              OFFSET 1 0 0
            }
          }
          JOINT rightEye
          {
            OFFSET -3.6576 8.04674 8.04672
            CHANNELS 3 Zrotation Xrotation Yrotation
            End Site
            {
              OFFSET 1 0 0
            }
          }
        }
      }
      JOINT rCollar
      {
        OFFSET -2.68224 19.2634 -4.8768
        CHANNELS 3 Zrotation Xrotation Yrotation
        JOINT rShldr
        {
          OFFSET -8.77824 -1.95073 1.46304
          CHANNELS 3 Zrotation Xrotation Yrotation
          JOINT rForeArm
          {
            OFFSET -28.1742 -1.7115 0.48768
            CHANNELS 3 Zrotation Xrotation Yrotation
            JOINT rHand
            {
              OFFSET -22.5879 0.773209 7.07136
              CHANNELS 3 Zrotation Xrotation Yrotation
              JOINT rThumb1
              {
                OFFSET -1.2192 -0.487915 3.41376
                CHANNELS 3 Zrotation Xrotation Yrotation
                JOINT rThumb2
                {
                  OFFSET -3.37035 -0.52449 3.41376
                  CHANNELS 3 Zrotation Xrotation Yrotation
                  End Site
                  {
                    OFFSET -1.78271 -1.18214 1.43049
                  }
                }
              }
              JOINT rIndex1
              {
                OFFSET -7.75947 0.938293 5.60832
                CHANNELS 3 Zrotation Xrotation Yrotation
                JOINT rIndex2
                {
                  OFFSET -2.54057 -0.884171 1.56538
                  CHANNELS 3 Zrotation Xrotation Yrotation
                  End Site
                  {
                    OFFSET -1.62519 -0.234802 1.16502
                  }
                }
              }
              JOINT rMid1
              {
                OFFSET -8.24714 1.18213 3.41376
                CHANNELS 3 Zrotation Xrotation Yrotation
                JOINT rMid2
                {
                  OFFSET -3.10165 -0.590103 1.0647
                  CHANNELS 3 Zrotation Xrotation Yrotation
                  End Site
                  {
                    OFFSET -2.48547 -0.328903 0.83742
                  }
                }
              }
              JOINT rRing1
              {
                OFFSET -8.82822 0.546677 1.51678
                CHANNELS 3 Zrotation Xrotation Yrotation
                JOINT rRing2
                {
                  OFFSET -2.60934 -0.819778 -0.0198488
                  CHANNELS 3 Zrotation Xrotation Yrotation
                  End Site
                  {
                    OFFSET -2.33842 -0.294052 0.168128
                  }
                }
              }
              JOINT rPinky1
              {
                OFFSET -8.27202 -0.0477905 -0.4584
                CHANNELS 3 Zrotation Xrotation Yrotation
                JOINT rPinky2
                {
                  OFFSET -1.82734 -0.647385 -0.700984
                  CHANNELS 3 Zrotation Xrotation Yrotation
                  End Site
                  {
                    OFFSET -1.69225 -0.51767 -0.607171
                  }
                }
              }
            }
          }
        }
      }
      JOINT lCollar
      {
        OFFSET 2.68224 19.2634 -4.8768
        CHANNELS 3 Zrotation Xrotation Yrotation
        JOINT lShldr
        {
          OFFSET 8.77824 -1.95073 1.46304
          CHANNELS 3 Zrotation Xrotation Yrotation
          JOINT lForeArm
          {
            OFFSET 28.1742 -1.7115 0.48768
            CHANNELS 3 Zrotation Xrotation Yrotation
            JOINT lHand
            {
              OFFSET 22.5879 0.773209 7.07136
              CHANNELS 3 Zrotation Xrotation Yrotation
              JOINT lThumb1
              {
                OFFSET 1.2192 -0.487915 3.41376
                CHANNELS 3 Zrotation Xrotation Yrotation
                JOINT lThumb2
                {
                  OFFSET 3.37035 -0.52449 3.41376
                  CHANNELS 3 Zrotation Xrotation Yrotation
                  End Site
                  {
                    OFFSET 1.78271 -1.18214 1.43049
                  }
                }
              }
              JOINT lIndex1
              {
                OFFSET 7.75947 0.938293 5.60832
                CHANNELS 3 Zrotation Xrotation Yrotation
                JOINT lIndex2
                {
                  OFFSET 2.54057 -0.884171 1.56538
                  CHANNELS 3 Zrotation Xrotation Yrotation
                  End Site
                  {
                    OFFSET 1.62519 -0.234802 1.16502
                  }
                }
              }
              JOINT lMid1
              {
                OFFSET 8.24714 1.18213 3.41376
                CHANNELS 3 Zrotation Xrotation Yrotation
                JOINT lMid2
                {
                  OFFSET 3.10165 -0.590103 1.0647
                  CHANNELS 3 Zrotation Xrotation Yrotation
                  End Site
                  {
                    OFFSET 2.48547 -0.328903 0.83742
                  }
                }
              }
              JOINT lRing1
              {
                OFFSET 8.82822 0.546677 1.51678
                CHANNELS 3 Zrotation Xrotation Yrotation
                JOINT lRing2
                {
                  OFFSET 2.60934 -0.819778 -0.0198488
                  CHANNELS 3 Zrotation Xrotation Yrotation
                  End Site
                  {
                    OFFSET 2.33842 -0.294052 0.168128
                  }
                }
              }
              JOINT lPinky1
              {
                OFFSET 8.27202 -0.0477905 -0.4584
                CHANNELS 3 Zrotation Xrotation Yrotation
                JOINT lPinky2
                {
                  OFFSET 1.82734 -0.647385 -0.700984
                  CHANNELS 3 Zrotation Xrotation Yrotation
                  End Site
                  {
                    OFFSET 1.69225 -0.51767 -0.607171
                  }
                }
              }
            }
          }
        }
      }
    }
  }
  JOINT rButtock
  {
    OFFSET -8.77824 4.35084 1.2192
    CHANNELS 3 Zrotation Xrotation Yrotation
    JOINT rThigh
    {
      OFFSET 0 -1.70687 -2.19456
      CHANNELS 3 Zrotation Xrotation Yrotation
      JOINT rShin
      {
        OFFSET 0 -36.8199 0.73152
        CHANNELS 3 Zrotation Xrotation Yrotation
        JOINT rFoot
        {
          OFFSET 0.73152 -45.1104 -5.12064
          CHANNELS 3 Zrotation Xrotation Yrotation
          End Site
          {
            OFFSET -1.1221 -3.69964 12.103
          }
        }
      }
    }
  }
  JOINT lButtock
  {
    OFFSET 8.77824 4.35084 1.2192
    CHANNELS 3 Zrotation Xrotation Yrotation
    JOINT lThigh
    {
      OFFSET 0 -1.70687 -2.19456
      CHANNELS 3 Zrotation Xrotation Yrotation
      JOINT lShin
      {
        OFFSET 0 -36.8199 0.73152
        CHANNELS 3 Zrotation Xrotation Yrotation
        JOINT lFoot
        {
          OFFSET -0.73152 -45.1104 -5.12064
          CHANNELS 3 Zrotation Xrotation Yrotation
          End Site
          {
            OFFSET 1.1221 -3.69964 12.103
          }
        }
      }
    }
  }
}
MOTION
Frames:	7
Frame Time:	0.03333
0.0 0.0 0.0 0.0 0.0 0.0 0.0 0.0 0.0 0.0 0.0 0.0 0.0 0.0 0.0 0.0 0.0 0.0 0.0 0.0 0.0 0.0 0.0 0.0 0.0 0.0 0.0 0.0 0.0 0.0 0.0 0.0 0.0 0.0 0.0 0.0 0.0 0.0 0.0 0.0 0.0 0.0 0.0 0.0 0.0 0.0 0.0 0.0 0.0 0.0 0.0 0.0 0.0 0.0 0.0 0.0 0.0 0.0 0.0 0.0 0.0 0.0 0.0 0.0 0.0 0.0 0.0 0.0 0.0 0.0 0.0 0.0 0.0 0.0 0.0 0.0 0.0 0.0 0.0 0.0 0.0 0.0 0.0 0.0 0.0 0.0 0.0 0.0 0.0 0.0 0.0 0.0 0.0 0.0 0.0 0.0 0.0 0.0 0.0 0.0 0.0 0.0 0.0 0.0 0.0 0.0 0.0 0.0 0.0 0.0 0.0 0.0 0.0 0.0 0.0 0.0 0.0 0.0 0.0 0.0 0.0 0.0 0.0 0.0 0.0 0.0 0.0 0.0 0.0 0.0 0.0 0.0
0.0162 9.3674 0.0075 -179.854244 -18.277752 179.263932 -3.011779 0.120102 88.782406 -1.1852 5.813843 -23.00961 9.139216 -4.275975 107.314277 77.199489 -57.603353 169.706593 -1.165443 0.00219 -0.215321 -0.850608 0.002099 -0.282811 -91.15271 57.009696 -10.44674 26.500848 -41.621269 -161.64175 77.327211 -78.555978 22.890056 162.23004 -8.051256 139.610834 -92.398941 80.299134 44.110792 -87.92517 4.327097 65.227863 -149.734919 30.236766 124.899633 -9.19282 27.937451 23.718934 -27.200525 -57.156095 -50.179556 96.230008 -67.190246 51.514377 -4.18803 60.247995 8.99203 -159.152018 -27.069283 -176.517594 -73.004018 60.283368 -94.294709 42.077186 -82.614044 -81.727248 -71.785193 -5.111694 1.835098 -8.658276 16.263217 -8.4598 -118.193664 40.458189 -39.57582 -8.13276 72.217228 147.661112 79.214232 64.622656 -28.861376 169.598749 -52.823431 -101.364109 15.644289 43.744177 13.982634 93.647444 52.545844 -60.18102 157.384549 -2.829611 -43.22098 161.966116 -47.66869 -47.782254 122.531777 46.324073 -128.413523 124.988742 79.879136 -152.410315 26.257707 -48.522321 -3.659454 -4.156155 -0.320581 -0.827393 -58.155577 -2.318618 -72.297804 25.434645 55.418726 180.0 -3.580941 -4.37406 -56.653894 -26.753999 -28.811215 160.650662 54.946423 -4.340208 84.79126 -1.806653 58.776825 -2.577332 -0.199344 4.871644 173.54187 -116.736286 29.091983 -72.949569
-0.1673 12.3231 -0.0821 -7.458729 -76.767034 0.015084 -14.694283 26.949465 6.223503 17.876072 -39.83531 5.829 -145.287752 67.453854 99.775948 33.51993 -46.944029 -26.06157 -57.02356 -3.84369 7.0694 -49.740577 -4.426593 9.531949 -60.403854 64.68343 35.04619 87.918714 -10.069436 37.273021 -166.919677 29.431988 75.840922 152.845199 -3.560802 134.481807 -111.58158 36.930793 78.995895 -87.429884 16.454263 69.203308 -148.248676 -31.254894 133.958582 -72.726352 67.985873 -29.244769 -66.426573 -63.257097 -176.814258 -38.015327 9.583318 127.600422 -96.898493 3.648045 -170.818624 29.808119 43.127373 -11.525236 -6.600332 -23.212088 -20.246539 -129.770086 64.109213 -134.792578 -22.826522 44.896137 -1.327696 -80.072803 -57.176639 -48.29288 178.951706 -26.994165 -47.514555 -163.125901 33.47964 -119.190941 134.731818 18.403307 -114.043131 -6.413229 -60.382843 -20.874123 46.745622 -82.657421 147.016454 -179.140372 -3.719952 -79.377383 146.169889 52.168224 165.432863 162.372826 -6.279296 -137.073934 -18.01399 1.609908 2.218187 64.98464 -54.331242 110.576471 118.378554 18.377872 99.142118 164.840086 -14.811467 114.835878 -88.68296 11.970103 -27.122736 136.142135 -27.411515 -180.0 82.464347 -71.40772 -56.470242 175.557434 48.512785 80.369992 1.986519 5.996286 -18.36772 -34.115426 -16.816837 -89.977894 -64.854597 -13.306925 -33.826183 127.056824 0.919673 115.599438
-0.5184 15.6519 -0.2624 -4.96328 -72.013892 -7.331496 -22.773585 43.404516 -76.498298 34.04633 14.002638 75.198722 -106.553635 84.45774 -166.067746 -53.853855 11.699864 -149.450136 -62.591514 0.149433 -0.245815 -48.267856 2.591019 -5.779187 -62.040953 60.179606 40.801502 79.960457 0.636089 57.48845 -1.172868 -37.409014 55.535906 12.652376 9.63147 -9.276682 -168.374667 -52.877089 85.932002 101.118454 -40.569941 16.223656 33.045045 -76.269345 -22.23128 -179.904449 21.009889 -167.75462 -56.649949 -74.925267 -158.022896 5.431647 32.022026 98.060828 32.825966 6.007316 -3.337559 -83.439833 67.021909 91.311732 30.956065 -47.430129 -7.672932 -9.721809 -0.432734 21.62815 148.661744 24.210787 -159.932893 -35.807405 -75.184635 -87.665247 5.094495 -88.107976 -90.319809 -21.138084 -7.918304 37.478249 -32.564191 -0.909513 33.463241 -10.342631 -24.809439 -9.492563 88.262839 20.023906 -141.864552 35.307382 -84.61408 94.305724 -81.482595 72.1745 66.242602 9.253279 50.097106 -40.941646 -3.645826 0.515647 4.892439 30.214415 -74.662081 75.676817 151.220159 -10.28984 99.187306 -130.407531 17.595572 139.101594 -51.586975 9.950372 0.0 123.666245 -58.681781 -124.218025 178.372 -71.429788 158.284003 76.654823 2.679867 150.311709 -154.645442 67.980305 -0.0 99.704062 30.157991 69.347088 37.314945 82.285044 67.15248 98.431651 -33.516178 42.203563
-0.9815 18.052599999999998 -0.4681 3.405219 -71.872837 -15.154952 -38.843302 48.850812 30.149371 11.860316 -32.09123 -15.408881 -102.485444 82.256945 -133.936292 -44.81495 14.979153 -156.61038 -40.307775 6.70459 -18.135817 -34.821744 9.989238 -31.145176 -156.823327 30.283802 152.435413 -138.27492 50.282104 68.45878 -91.299066 72.687839 140.663741 9.995054 13.094114 -11.843382 12.611737 48.512861 6.838303 -177.404404 -39.78168 178.882791 -136.127448 -58.111391 165.480345 84.878674 56.555665 -133.227378 58.644906 -9.403434 -13.277114 163.199155 47.559479 74.667293 -118.237663 -10.549406 -171.897978 77.215835 52.186057 -47.968253 -0.884265 59.907397 84.26738 -144.435163 -2.66329 -86.617895 22.228863 43.853152 -7.436975 70.739603 1.080574 -116.38376 76.317748 24.280654 94.369778 -102.787563 -46.188006 -50.604682 0.437631 53.700722 -12.719537 89.114451 26.055379 -56.681611 53.935761 72.265081 -98.769999 29.596326 -69.849553 30.410208 105.913775 -59.005927 166.369668 158.323809 58.42114 -100.834413 112.016671 -21.329061 140.741435 68.551908 -44.71829 109.748273 -77.496347 80.261285 82.940593 -0.707359 8.732623 -99.365857 48.903594 50.649128 44.764001 -112.211223 -37.416395 -34.268048 89.131837 52.675418 0.478292 -145.143496 -34.385383 150.365906 -79.019917 52.510657 -42.639758 63.629545 6.764511 -86.657995 -85.247597 -56.992268 -177.361288 -95.664928 -15.616262 -49.341916
-1.8117 22.4967 -0.6427 10.551834 -72.314287 -18.001853 -49.503901 42.633694 -0.0 36.737335 -22.401396 26.990456 69.857386 88.9462 -1.951853 -14.598533 -19.242346 -99.429959 -13.120736 3.501133 -29.765303 -18.119157 7.121277 -42.636066 -152.158189 -10.785464 171.970342 -62.425125 11.650598 -2.207405 23.824371 -34.219547 -69.325413 163.289727 -13.538551 138.262894 173.571321 -58.531481 73.469045 -164.029311 -62.063906 63.723495 -121.488627 -61.945451 174.938952 -175.615284 5.462722 -173.636319 -103.760138 -42.573229 152.440795 -87.046823 -50.511719 134.945021 34.806721 -9.561921 -9.052516 -177.4942 -30.289655 138.815371 -92.059549 -0.377604 -151.981879 -137.464346 69.801959 -133.387971 28.995616 45.669101 -21.779045 -54.57124 14.133073 -64.73837 139.898494 23.024716 -32.07253 -133.342011 -33.771954 -92.959615 140.772884 -42.931616 -104.986637 154.053743 -12.430004 -90.529878 -5.2735 70.515298 -2.75316 -0.354093 -29.017215 -47.861407 119.372793 -43.76988 179.557026 172.63727 50.98363 -142.69029 93.313365 -32.519451 130.51729 -35.993444 -7.009755 31.506154 133.771882 -55.614181 87.00316 117.415308 22.778804 23.442913 56.386217 57.267024 53.520589 -109.889457 -22.203117 130.293392 37.32918 -88.296773 72.464934 -157.714377 42.843839 -109.463041 1.207982 4.510987 -15.008228 -36.044342 -11.286408 124.434339 89.422778 -26.492541 41.861417 -94.015266 10.778714 -54.280818
-2.8372 28.7302 -0.5589000000000001 15.88138 -72.189129 -19.011956 -77.705579 35.879105 -17.408379 66.303988 3.563754 45.722897 136.588001 73.284521 -23.112496 -15.776027 7.946511 -144.256309 3.588523 -0.555846 -17.604251 -7.523874 2.857222 -41.54215 -65.15449 82.773701 73.895326 -131.157044 -4.935852 109.061334 -13.610215 -71.94071 -100.763013 162.401313 -35.483362 136.55161 10.924746 18.833798 4.284708 -126.966574 40.626206 59.161771 20.27823 9.826308 -18.609124 -154.333577 -68.486716 74.875785 -88.500934 -9.449794 150.247084 96.7288 74.315123 -22.332174 -99.364872 0.871283 -178.905066 14.156251 28.78006 -21.476076 4.131137 -51.484871 -48.186577 -58.721557 63.355458 116.549659 75.730058 57.817507 -79.242469 -95.008808 -17.983641 -83.561172 171.064508 7.214864 -49.986751 -156.473321 -11.802087 -113.403765 -109.274392 -61.365712 -15.267411 -175.666009 -22.269065 -129.678023 50.832786 -61.822617 118.38709 173.595822 45.865046 164.990992 -31.248727 6.067651 32.164135 44.116948 45.581261 -60.750209 112.519038 -14.427946 161.587343 59.980969 -82.493862 83.583852 -172.140937 43.918847 160.734832 -149.48328 -6.709038 -127.889719 -130.373504 59.98268 -53.638513 -175.885026 16.204494 -14.456134 -54.251902 76.970755 -104.818866 109.252804 -27.066297 172.864995 7.615991 1.710507 -10.123451 -43.015025 -5.978826 -0.0 -65.246201 72.768703 -35.115843 91.955352 60.085253 107.184767
